<svg width="200" height="200" viewBox="0 0 200 200" xmlns="http://www.w3.org/2000/svg">
  <!-- Background circle -->
  <circle cx="100" cy="100" r="90" fill="#F4F4F4" stroke="#DDD" stroke-width="4"/>

  <!-- Segments -->
  <path d="M100,100 L100,10 A90,90 0 0,1 190,100 Z" fill="#4F46E5"/>
  <path d="M100,100 L190,100 A90,90 0 0,1 100,190 Z" fill="#22C55E"/>
  <path d="M100,100 L100,190 A90,90 0 0,1 10,100 Z" fill="#F97316"/>
  <path d="M100,100 L10,100 A90,90 0 0,1 100,10 Z" fill="#EC4899"/>

  <!-- Person Icon -->
  <circle cx="100" cy="85" r="15" fill="white"/>
  <path d="M85 115 Q100 100 115 115 Q100 130 85 115" fill="white"/>
</svg>